<svg viewBox="0 0 120 120" xmlns="http://www.w3.org/2000/svg" fill="none" stroke="#2A2A2A" stroke-width="1.5" stroke-linecap="round" stroke-linejoin="round">
    <ellipse cx="60" cy="64" rx="28" ry="30" fill="#E8C878"/>
    <path d="M34 52 Q24 30, 20 26 Q18 24, 22 28 Q26 34, 34 44" fill="#E8C878" stroke="#2A2A2A"/>
    <path d="M86 52 Q96 30, 100 26 Q102 24, 98 28 Q94 34, 86 44" fill="#E8C878" stroke="#2A2A2A"/>
    <circle cx="48" cy="58" r="3" fill="#2A2A2A" stroke="none"/>
    <circle cx="72" cy="58" r="3" fill="#2A2A2A" stroke="none"/>
    <ellipse cx="60" cy="68" rx="6" ry="4" fill="#2A2A2A" stroke="none"/>
    <path d="M52 74 Q60 82 68 74" fill="none"/>
    <path d="M60 72 L60 76" stroke="#2A2A2A"/>
    <path d="M72 94 Q80 110, 92 106 Q96 104, 90 102" stroke="#2A2A2A" fill="none"/>
    <ellipse cx="48" cy="72" rx="8" ry="4" fill="#E8C4B0" stroke="none" opacity=".4"/>
    <ellipse cx="72" cy="72" rx="8" ry="4" fill="#E8C4B0" stroke="none" opacity=".4"/>
  </svg>