<svg viewBox="0 0 120 120" xmlns="http://www.w3.org/2000/svg" fill="none" stroke="#2A2A2A" stroke-width="1.5" stroke-linecap="round" stroke-linejoin="round">
  <path d="M34 58 C34 38 45 26 60 26 C75 26 86 38 86 58 V74 C86 81 80 84 76 79 C74 88 65 89 62 80 C58 90 48 88 48 79 C43 85 34 81 34 74 Z" fill="#DB86A6"/>
  <circle cx="50" cy="53" r="3" fill="#2A2A2A" stroke="none"/>
  <circle cx="70" cy="53" r="3" fill="#2A2A2A" stroke="none"/>
  <path d="M55 64 Q60 60 65 64"/>
  <path d="M34 73 Q25 77 27 87 Q29 94 35 90"/>
  <path d="M86 73 Q95 77 93 87 Q91 94 85 90"/>
</svg>
