<svg viewBox="0 0 120 120" xmlns="http://www.w3.org/2000/svg" fill="none" stroke="#2A2A2A" stroke-width="1.5" stroke-linecap="round" stroke-linejoin="round">
    <ellipse cx="60" cy="72" rx="26" ry="28" fill="#F0E4D8"/>
    <path d="M44 50 Q40 10, 34 8 Q28 6, 38 50" fill="#F0E4D8" stroke="#2A2A2A"/>
    <path d="M38 48 Q38 18, 36 14" fill="#E8C4B0" stroke="none"/>
    <path d="M76 50 Q80 10, 86 8 Q92 6, 82 50" fill="#F0E4D8" stroke="#2A2A2A"/>
    <path d="M82 48 Q82 18, 84 14" fill="#E8C4B0" stroke="none"/>
    <circle cx="50" cy="66" r="3" fill="#2A2A2A" stroke="none"/>
    <circle cx="70" cy="66" r="3" fill="#2A2A2A" stroke="none"/>
    <ellipse cx="60" cy="74" rx="4" ry="3" fill="#E8C4B0" stroke="#2A2A2A"/>
    <path d="M56 78 Q60 82 64 78" fill="none"/>
    <ellipse cx="46" cy="78" rx="8" ry="5" fill="#E8C4B0" stroke="none" opacity=".5"/>
    <ellipse cx="74" cy="78" rx="8" ry="5" fill="#E8C4B0" stroke="none" opacity=".5"/>
  </svg>